<svg width="128" height="128" viewBox="0 0 128 128" fill="none" xmlns="http://www.w3.org/2000/svg">
  <rect width="128" height="128" rx="34" fill="url(#g)"/>
  <rect x="20" y="20" width="88" height="88" rx="24" stroke="white" stroke-opacity="0.38" stroke-width="4" transform="rotate(-8 64 64)"/>
  <path d="M38 84C46 91 60 93 69 86C75 81 75 70 67 66L53 59C47 56 48 48 55 46C61 44 69 46 75 51" stroke="white" stroke-width="10" stroke-linecap="round"/>
  <path d="M56 91C64 97 80 97 89 88C96 81 94 70 85 66L72 60C66 57 67 49 74 47C81 45 89 48 94 54" stroke="#DFFBFF" stroke-width="10" stroke-linecap="round"/>
  <path d="M18 34L97 14" stroke="white" stroke-opacity="0.28" stroke-width="12" stroke-linecap="round"/>
  <defs>
    <linearGradient id="g" x1="14" y1="12" x2="116" y2="116" gradientUnits="userSpaceOnUse">
      <stop stop-color="#9B5CFF"/>
      <stop offset="1" stop-color="#00E5FF"/>
    </linearGradient>
  </defs>
</svg>
